<svg width="24" height="24" viewBox="0 0 24 24" fill="none" xmlns="http://www.w3.org/2000/svg">
<path d="M7 15.5H17C18.3807 15.5 19.5 16.6193 19.5 18V22H21V18C21 15.7909 19.2091 14 17 14H7C4.79086 14 3 15.7909 3 18V22H4.5V18C4.5 16.6193 5.61929 15.5 7 15.5Z" fill="black"/>
<path fill-rule="evenodd" clip-rule="evenodd" d="M12 10.5C13.933 10.5 15.5 8.933 15.5 7C15.5 5.067 13.933 3.5 12 3.5C10.067 3.5 8.5 5.067 8.5 7C8.5 8.933 10.067 10.5 12 10.5ZM12 12C14.7614 12 17 9.76142 17 7C17 4.23858 14.7614 2 12 2C9.23858 2 7 4.23858 7 7C7 9.76142 9.23858 12 12 12Z" fill="black"/>
</svg>
